<svg width="32" height="32" viewBox="0 0 32 32">
<path fill-rule="evenodd" clip-rule="evenodd" d="M7.9 4.04894C7.9 3.12518 8.9 2.54783 9.7 3.00971L30.4 14.9609C31.2 15.4227 31.2 16.5774 30.4 17.0393L9.7 28.9905C8.9 29.4524 7.9 28.875 7.9 27.9512L7.9 4.04894ZM9.1 4.04894L9.1 27.9512L29.8 16.0001L9.1 4.04894Z" fill="#A4A4A4"/>
<path fill-rule="evenodd" clip-rule="evenodd" d="M9.42378 2.40955C8.63779 2.40955 7.91151 2.82886 7.51852 3.50955L0.942281 14.8999C0.549289 15.5806 0.549289 16.4192 0.942281 17.0999L7.51852 28.4903C7.91151 29.171 8.63779 29.5903 9.42378 29.5903H22.5763C23.3622 29.5903 24.0885 29.171 24.4815 28.4903L31.0578 17.0999C31.4507 16.4192 31.4507 15.5806 31.0578 14.8999L24.4815 3.50955C24.0885 2.82886 23.3622 2.40955 22.5763 2.40955H9.42378ZM8.55775 4.10955C8.73638 3.80015 9.06651 3.60955 9.42378 3.60955L22.4608 3.60955L15.6536 15.4H2.03922L8.55775 4.10955ZM2.03928 16.6L8.55775 27.8903C8.73638 28.1997 9.06651 28.3903 9.42378 28.3903H22.4607L15.6536 16.6H2.03928ZM23.5 27.7904L30.0185 16.4999C30.1972 16.1905 30.1972 15.8093 30.0185 15.4999L23.5 4.20955L16.6928 16L23.5 27.7904Z" fill="black"/>
</svg>
